<?xml version="1.0" standalone="no"?>
<!DOCTYPE svg PUBLIC "-//W3C//DTD SVG 20010904//EN"
 "http://www.w3.org/TR/2001/REC-SVG-20010904/DTD/svg10.dtd">
<svg version="1.0" xmlns="http://www.w3.org/2000/svg"
 width="256.000000pt" height="256.000000pt" viewBox="0 0 256.000000 256.000000"
 preserveAspectRatio="xMidYMid meet">
<metadata>
Created by potrace 1.11, written by Peter Selinger 2001-2013
</metadata>
<g transform="translate(0.000000,256.000000) scale(0.100000,-0.100000)"
fill="#000000" stroke="none">
<path d="M1125 1929 c-22 -4 -58 -10 -80 -13 -275 -44 -655 -258 -919 -518
-84 -83 -88 -89 -82 -120 17 -87 367 -365 611 -486 228 -113 410 -159 626
-159 249 -1 494 75 769 237 114 68 328 238 419 335 73 77 69 93 -48 206 -226
219 -547 413 -786 475 -5 2 -35 10 -65 18 -30 8 -71 18 -90 21 -52 10 -309 13
-355 4z m273 -150 c231 -51 399 -278 387 -520 -10 -197 -132 -371 -313 -444
-186 -76 -392 -37 -539 102 -209 198 -213 524 -9 727 128 126 298 175 474 135z"/>
<path d="M1179 1635 c-100 -36 -170 -93 -217 -176 -24 -42 -51 -151 -46 -185
10 -76 18 -103 39 -149 34 -70 97 -131 175 -169 57 -27 76 -31 150 -31 77 0
92 3 150 33 36 17 77 43 92 56 36 32 91 121 105 169 l11 38 -48 -5 c-70 -6
-118 12 -170 64 -51 51 -69 97 -65 168 3 54 16 81 59 129 l29 33 -39 16 c-49
21 -177 26 -225 9z"/>
</g>
</svg>
